<svg width="38" height="38" viewBox="0 0 38 38" fill="none" 
  xmlns="http://www.w3.org/2000/svg">
  <path d="M37.4062 19C37.4062 29.1655 29.1655 37.4062 19 37.4062C8.83448 37.4062 0.59375 29.1655 0.59375 19C0.59375 8.83448 8.83448 0.59375 19 0.59375C29.1655 0.59375 37.4062 8.83448 37.4062 19ZM26.8931 16.3779C27.2595 13.9287 25.3945 12.6121 22.8445 11.7338L23.6717 8.41603L21.652 7.91276L20.8466 11.1431C20.3157 11.0107 19.7703 10.886 19.2284 10.7623L20.0396 7.51079L18.021 7.00751L17.1932 10.3241C16.7537 10.2239 16.3223 10.125 15.9035 10.0209L15.9058 10.0106L13.1204 9.31512L12.5831 11.4721C12.5831 11.4721 14.0817 11.8155 14.0501 11.8367C14.8681 12.0409 15.0159 12.5822 14.9911 13.0112L14.0489 16.7908C14.1053 16.8052 14.1783 16.8259 14.2588 16.8581C14.1915 16.8414 14.1196 16.823 14.0454 16.8052L12.7246 22.0998C12.6245 22.3483 12.3708 22.721 11.799 22.5796C11.8191 22.6089 10.331 22.2132 10.331 22.2132L9.32826 24.5248L11.9566 25.18C12.4456 25.3025 12.9248 25.4308 13.3965 25.5515L12.5606 28.9072L14.578 29.4104L15.4058 26.0904C15.9408 26.2354 16.4774 26.3746 17.0154 26.508L16.1904 29.8125L18.2102 30.3158L19.046 26.9664C22.4901 27.6181 25.0799 27.3552 26.17 24.2406C27.0484 21.7327 26.1263 20.2861 24.3142 19.3428C25.6338 19.0387 26.6279 18.1708 26.8931 16.3779ZM22.2784 22.8482C21.6542 25.356 17.4313 24.0003 16.0622 23.6603L17.1713 19.2147C18.5404 19.5563 22.9307 20.2328 22.2784 22.8482ZM22.9031 16.3416C22.3336 18.6228 18.8188 17.4638 17.6786 17.1797L18.6841 13.1476C19.8243 13.4317 23.4962 13.962 22.9031 16.3416Z" fill="#F7931A"/>
</svg>
