<svg width="28" height="28" viewBox="0 0 28 28" fill="none" 
  xmlns="http://www.w3.org/2000/svg">
  <path d="M14 0.4375C21.4922 0.4375 27.5625 6.50781 27.5625 14C27.5625 21.4922 21.4922 27.5625 14 27.5625C6.50781 27.5625 0.4375 21.4922 0.4375 14C0.4375 6.50781 6.50781 0.4375 14 0.4375ZM14 24.9375C20.043 24.9375 24.9375 20.043 24.9375 14C24.9375 7.95703 20.043 3.0625 14 3.0625C7.95703 3.0625 3.0625 7.95703 3.0625 14C3.0625 20.043 7.95703 24.9375 14 24.9375ZM10.6203 19.2281L15.2633 15.8539C15.4328 15.7281 15.5312 15.5313 15.5312 15.3234V6.34375C15.5312 5.98281 15.2359 5.6875 14.875 5.6875H13.125C12.7641 5.6875 12.4688 5.98281 12.4688 6.34375V14.093L8.81563 16.7508C8.52031 16.9641 8.46016 17.3742 8.67344 17.6695L9.70156 19.0859C9.91484 19.3758 10.325 19.4414 10.6203 19.2281Z" fill="white" fill-opacity="0.6"/>
</svg>
