<svg width="23" height="23" viewBox="0 0 23 23" fill="none" 
  xmlns="http://www.w3.org/2000/svg">
  <g clip-path="url(#clip0)">
    <path d="M15.453 23L16.1718 23C16.7672 23 17.2499 22.5173 17.2499 21.9219L17.2499 5.75L19.4062 5.75C20.366 5.75 20.8455 4.58657 20.1685 3.90951L16.5748 0.315759C16.1537 -0.10525 15.4711 -0.10525 15.0501 0.315759L11.4563 3.90951C10.782 4.58401 11.2548 5.75 12.2187 5.75L14.3749 5.75L14.3749 21.9219C14.3749 22.5173 14.8576 23 15.453 23ZM8.6249 1.07813L8.6249 17.25L10.7812 17.25C11.7386 17.25 12.2222 18.4118 11.5435 19.0905L7.94977 22.6842C7.52872 23.1053 6.84609 23.1053 6.42508 22.6842L2.83133 19.0905C2.15629 18.4154 2.63066 17.25 3.59365 17.25L5.7499 17.25L5.7499 1.07813C5.7499 0.482688 6.23259 3.19169e-06 6.82803 3.21772e-06L7.54678 3.24913e-06C8.14222 3.27516e-06 8.6249 0.482688 8.6249 1.07813Z" fill="white" fill-opacity="0.6"/>
  </g>
  <defs>
    <clipPath id="clip0">
      <rect width="23" height="23" transform="matrix(4.37114e-08 -1 -1 -4.37114e-08 23 23)" fill="white"/>
    </clipPath>
  </defs>
</svg>
