<svg width="19" height="25" viewBox="0 0 19 25" fill="none" 
  xmlns="http://www.w3.org/2000/svg">
  <path d="M0.791666 2.34375H0.59375C0.265852 2.34375 0 2.0814 0 1.75781V0.585938C0 0.262354 0.265852 0 0.59375 0H18.4062C18.7341 0 19 0.262354 19 0.585938V1.75781C19 2.0814 18.7341 2.34375 18.4062 2.34375H18.2083C18.2083 6.27754 16.6157 10.4398 13.3999 12.5C16.63 14.5694 18.2083 18.7451 18.2083 22.6562H18.4062C18.7341 22.6562 19 22.9186 19 23.2422V24.4141C19 24.7376 18.7341 25 18.4062 25H0.59375C0.265852 25 0 24.7376 0 24.4141V23.2422C0 22.9186 0.265852 22.6562 0.59375 22.6562H0.791666C0.791666 18.7225 2.3843 14.5602 5.60005 12.5C2.36995 10.4306 0.791666 6.25488 0.791666 2.34375ZM15.8333 2.34375H3.16667C3.16667 7.30566 6.00217 11.3281 9.5 11.3281C12.9978 11.3281 15.8333 7.30571 15.8333 2.34375ZM3.16667 22.6562H15.8333C15.8333 17.6943 12.9978 13.6719 9.5 13.6719C6.00222 13.6719 3.16667 17.6943 3.16667 22.6562Z" fill="white" fill-opacity="0.6"/>
</svg>
