<svg width="37" height="33" viewBox="0 0 37 33" fill="none" 
  xmlns="http://www.w3.org/2000/svg">
  <g filter="url(#filter0_d)">
    <g clip-path="url(#clip0)">
      <path d="M4.80401 10.9375H6.28925C6.73231 9.96094 7.37675 9.09668 8.17224 8.37402L7.22067 4.6875H8.83179C10.312 4.6875 11.621 5.34668 12.5071 6.3623C12.8898 6.30859 13.2674 6.25 13.6651 6.25H20.1096C24.0064 6.25 27.2538 8.93555 28.004 12.5H30.179C30.9241 12.5 31.5132 11.8408 31.3622 11.0938C31.2514 10.5371 30.7127 10.1562 30.1287 10.1562H30.0783C29.9122 10.1562 29.7762 10.0244 29.7762 9.86328V8.88672C29.7762 8.72559 29.9122 8.59375 30.0783 8.59375C31.5132 8.59375 32.792 9.58984 32.9733 10.9668C33.1948 12.6367 31.8556 14.0625 30.179 14.0625H28.1651C28.1651 16.6113 26.8863 18.8525 24.9429 20.2783V24.2188C24.9429 24.6484 24.5804 25 24.1373 25H20.9151C20.4721 25 20.1096 24.6484 20.1096 24.2188V21.875H13.6651V24.2188C13.6651 24.6484 13.3026 25 12.8596 25H9.63734C9.19429 25 8.83179 24.6484 8.83179 24.2188V20.2783C8.23769 19.8438 7.70904 19.3311 7.25592 18.75H4.80401C4.36095 18.75 3.99845 18.3984 3.99845 17.9688V11.7188C3.99845 11.2891 4.36095 10.9375 4.80401 10.9375ZM11.2485 14.0625C11.6915 14.0625 12.054 13.7109 12.054 13.2812C12.054 12.8516 11.6915 12.5 11.2485 12.5C10.8054 12.5 10.4429 12.8516 10.4429 13.2812C10.4429 13.7109 10.8054 14.0625 11.2485 14.0625ZM20.1096 4.6875H13.6651C13.3932 4.6875 13.1264 4.70703 12.8646 4.72656C12.8646 4.71191 12.8596 4.70215 12.8596 4.6875C12.8596 2.09961 15.0245 0 17.6929 0C20.3613 0 22.5262 2.09961 22.5262 4.6875C22.5262 4.79004 22.5011 4.8877 22.496 4.99023C21.7307 4.7998 20.9353 4.6875 20.1096 4.6875Z" fill="white" fill-opacity="0.6"/>
    </g>
  </g>
  <defs>
    <filter id="filter0_d" x="0" y="0" width="37" height="33" filterUnits="userSpaceOnUse" color-interpolation-filters="sRGB">
      <feFlood flood-opacity="0" result="BackgroundImageFix"/>
      <feColorMatrix in="SourceAlpha" type="matrix" values="0 0 0 0 0 0 0 0 0 0 0 0 0 0 0 0 0 0 127 0"/>
      <feOffset dy="4"/>
      <feGaussianBlur stdDeviation="2"/>
      <feColorMatrix type="matrix" values="0 0 0 0 0 0 0 0 0 0 0 0 0 0 0 0 0 0 0.25 0"/>
      <feBlend mode="normal" in2="BackgroundImageFix" result="effect1_dropShadow"/>
      <feBlend mode="normal" in="SourceGraphic" in2="effect1_dropShadow" result="shape"/>
    </filter>
    <clipPath id="clip0">
      <rect width="29" height="25" transform="matrix(-1 0 0 1 33 0)" fill="white"/>
    </clipPath>
  </defs>
</svg>
